<?xml version="1.0" encoding="UTF-8"?>
<svg xmlns="http://www.w3.org/2000/svg" xmlns:xlink="http://www.w3.org/1999/xlink" viewBox="0 0 626 537">
  <defs>
    <style>
      .cls-1 {
        stroke-width: 4px;
      }

      .cls-1, .cls-2, .cls-3, .cls-4, .cls-5 {
        stroke: #fff;
        stroke-miterlimit: 10;
      }

      .cls-2 {
        fill: url(#Degradado_sin_nombre_10);
      }

      .cls-2, .cls-3, .cls-4, .cls-5 {
        stroke-width: 3px;
      }

      .cls-3 {
        fill: url(#Degradado_sin_nombre_6);
      }

      .cls-4 {
        fill: url(#Degradado_sin_nombre_5);
      }

      .cls-5 {
        fill: url(#Degradado_sin_nombre_3);
      }
    </style>
    <linearGradient id="Degradado_sin_nombre_6" data-name="Degradado sin nombre 6" x1="272.01" y1="206.04" x2="488.24" y2="206.04" gradientTransform="translate(6.74 -15.78) rotate(2.1)" gradientUnits="userSpaceOnUse">
      <stop offset="0" stop-color="#ffc7f2"/>
      <stop offset=".2" stop-color="#fdc3f1"/>
      <stop offset=".35" stop-color="#f7baee"/>
      <stop offset=".48" stop-color="#eda9e9"/>
      <stop offset=".61" stop-color="#df92e1"/>
      <stop offset=".73" stop-color="#cd75d8"/>
      <stop offset=".85" stop-color="#b750cd"/>
      <stop offset=".95" stop-color="#9d26c0"/>
      <stop offset="1" stop-color="#9112ba"/>
    </linearGradient>
    <linearGradient id="Degradado_sin_nombre_5" data-name="Degradado sin nombre 5" x1="177.31" y1="153.43" x2="414.97" y2="153.43" gradientTransform="translate(.87 1.33) rotate(-.08) scale(.99) skewX(-.15)" gradientUnits="userSpaceOnUse">
      <stop offset="0" stop-color="#fffe00"/>
      <stop offset=".16" stop-color="#fffa00"/>
      <stop offset=".31" stop-color="#ffef00"/>
      <stop offset=".45" stop-color="#ffdc00"/>
      <stop offset=".59" stop-color="#ffc200"/>
      <stop offset=".72" stop-color="#ffa000"/>
      <stop offset=".86" stop-color="#f70"/>
      <stop offset=".99" stop-color="#ff4700"/>
      <stop offset="1" stop-color="#ff4200"/>
    </linearGradient>
    <linearGradient id="Degradado_sin_nombre_10" data-name="Degradado sin nombre 10" x1="248.52" y1="235.21" x2="127.51" y2="63.07" gradientTransform="translate(-1.29 .94) rotate(-.25)" gradientUnits="userSpaceOnUse">
      <stop offset="0" stop-color="#008153"/>
      <stop offset=".07" stop-color="#009b41"/>
      <stop offset=".16" stop-color="#01ba2d"/>
      <stop offset=".27" stop-color="#01d31c"/>
      <stop offset=".39" stop-color="#02e60f"/>
      <stop offset=".52" stop-color="#02f406"/>
      <stop offset=".69" stop-color="#02fc01"/>
      <stop offset="1" stop-color="#03ff00"/>
    </linearGradient>
    <linearGradient id="Degradado_sin_nombre_3" data-name="Degradado sin nombre 3" x1="224" y1="274.45" x2="470.24" y2="323.16" gradientTransform="translate(-24.88 35.36) rotate(-4.73) scale(1)" gradientUnits="userSpaceOnUse">
      <stop offset="0" stop-color="aqua"/>
      <stop offset=".1" stop-color="#00f9ff"/>
      <stop offset=".23" stop-color="#00eaff"/>
      <stop offset=".37" stop-color="#00d1ff"/>
      <stop offset=".52" stop-color="#00aeff"/>
      <stop offset=".68" stop-color="#0081ff"/>
      <stop offset=".84" stop-color="#004cff"/>
      <stop offset="1" stop-color="#0010ff"/>
    </linearGradient>
  </defs>
  <g id="Capa_1" data-name="Capa 1">
    <path class="cls-3" d="m274.36,109.05c7.49-2.47,83.02-26.05,147.09,21.23,53.09,39.18,76.22,110.73,56.81,178.72.19-13.68-.25-83.02-54.95-139.82-59.46-61.75-136.68-60.53-148.95-60.13Z"/>
    <path class="cls-4" d="m411.82,173.51c-9.78-10.27-25.79-24.69-48.83-36.14-16.94-8.42-61.42-30.53-112.08-14.08-45.72,14.85-68.39,51.98-74.6,63.05,17.68-14.85,48.14-35.45,89.7-41.92,24.62-3.83,44.43-1.36,58.23.47,39.15,5.18,69.11,18.58,87.58,28.62Z"/>
    <path class="cls-2" d="m355.13,167.79c-8.61-1.87-59.67-12.12-104.05,20.66-3.29,2.43-35.63,27.03-46.32,70.56-13.19,53.72,12.03,114.2,62.92,155.84-14.76-3.59-56.35-15.82-85.74-55.35-25.37-34.11-41.81-88.85-19.16-136.66,13.86-29.26,37.08-44.29,45.55-49.58,62.55-39.03,136.31-9.81,146.8-5.47Z"/>
    <path class="cls-5" d="m285.17,413.7c57.48,29.08,112.63-.96,119.36-4.78,3.25-1.84,48.87-28.61,60.47-78.34,4.78-20.47,2.66-40.02,2.08-44.81-.41-3.38-2.49-19.44-10.18-37.42-15.63-36.54-44.6-58.05-58.23-66.95,8.46,9.28,25.09,30.3,28.72,60.46.93,7.71,2.45,21.83-3.28,38.3-1.85,5.33-6.87,19.67-20.44,30.96-3.24,2.7-18.82,15.67-37.38,15.06-34.47-1.13-66.98-48.72-55.66-83.84,6.78-21.04,27.1-30.86,28.34-31.43,21.81-10.15,42.44-2.04,45.8-.65-7.23-6.97-32.53-29.59-68.68-29.6-44.22,0-86.69,33.84-101.85,84.5,11.65.3,41.4,2.75,64.72,24.77,7.75,7.32,21.77,20.57,21.3,39.8-.06,2.48-.61,18.69-10.07,24.71-13.36,8.5-42.81-5.12-71-36.86.51,4.7,8.33,66.95,65.98,96.12Z"/>
  </g>
  <g id="Capa_2" data-name="Capa 2">
    <g>
      <path class="cls-1" d="m260.34,290.04l-36.73,61.06h-37.22l54.25-89.77-53.03-87.82h36.98l35.76,59.12,35.76-59.12h37.22l-53.52,87.82,54.49,89.77h-36.98l-36.98-61.06Z"/>
      <path class="cls-1" d="m347.19,173.51h60.82c9.24,0,17.76,1.67,25.54,4.99,7.78,3.33,14.51,7.83,20.19,13.5,5.68,5.68,10.13,12.37,13.38,20.07,3.24,7.7,4.87,15.93,4.87,24.69s-1.62,17.03-4.87,24.81c-3.25,7.78-7.7,14.52-13.38,20.19-5.68,5.68-12.45,10.18-20.31,13.5-7.87,3.33-16.42,4.99-25.67,4.99h-27.49v50.84h-33.09v-177.59Zm33.09,30.65v65.44h25.3c4.87,0,9.32-.85,13.38-2.55,4.05-1.7,7.54-4.05,10.46-7.06,2.92-3,5.19-6.48,6.81-10.46,1.62-3.97,2.43-8.23,2.43-12.77s-.81-8.8-2.43-12.77c-1.62-3.97-3.89-7.42-6.81-10.34-2.92-2.92-6.41-5.23-10.46-6.93-4.06-1.7-8.52-2.55-13.38-2.55h-25.3Z"/>
    </g>
  </g>
</svg>